<?xml version="1.0" standalone="yes"?>
<svg xmlns="http://www.w3.org/2000/svg" width="280" height="70">
<path style="fill:#020202; stroke:none;" d="M77 67L77.9722 65.5L78.1667 64.9444L78.6389 63.9444L79.3889 62L79.8333 61L80.25 60L81.2222 58L81.75 57L82.6111 55L83.3889 53L83.8333 52L84.25 51L84.7778 50L85.2222 49L85.7778 48L86.75 46L87.1667 45L87.6111 44L88.3889 42L88.8333 41L89.25 40L90.2222 38L90.7778 37L91.2222 36L91.75 35L92.1667 34L92.6111 33L93.3889 31L94.1944 29.0556L94.5 28.5L95 27L72 27L67 27L65 27L63 27.0278L61 27.3333L60 27.7222L58 29.1111L57 30.0278L55 32L53 34L52 35L51 36L49.0833 38L47.5 39.9444L46.5278 41.5L46 43L62 43L61.0278 44.5L60.8333 45.0556L60.3611 46.0556L59.6944 47.9444L59.4167 48.9444L59.25 49.5L59 51L55.9444 51L54 51L52 51L51 50.9722L50 50.9167L48 50.5278L47 50.1389L46 49.7222L45 49.1389L44 48.5278L42 46.9167L41 45.9722L39.0278 44L38.0833 43L36.5 41L35.5 39L35.25 38L35.0833 37L35.0833 35L35.4722 33L35.8611 32L36.7778 30L37.8611 28L38.4722 27L40.0833 25L42 23.0833L43 22.25L44 21.4722L46 20.2778L47 19.8611L48 19.4722L50 19.0833L52 19L54 19L56 19L61 19L79 19L82 19L84 19L86 18.9167L87 18.75L88 18.5L90 17.5L92 15.9167L94 14.0833L96 12.3889L97 11.6111L99 9.91667L99.9722 8.97222L100.917 8L102.5 6.05556L103.472 4.5L104 3L59 3L49 3L47 3L46 3L44 3.02778L43 3.08334L41 3.38889L40 3.61111L39 3.80556L37 4.19444L36 4.41666L35 4.69444L33 5.38889L31 6.25L30 6.77778L29 7.25L28 7.83333L27 8.38889L25 9.69444L23 11.1944L21.0833 12.8056L19.3889 14.3889L18.6111 15.2222L16.9444 17.0278L15.2222 19L14.4167 20L13.6944 21L12.3889 23L11.2778 25L10.8333 26L10.3889 27L9.66667 29L9.33333 30L9 31L8.41667 33L8.08333 35L8.02778 36L8.02778 38L8.08333 39L8.38889 41L8.61111 42L9 44L9.41667 46L10.0278 48L10.4167 49L11.4722 51L12.1667 52L13.6389 53.9722L14.3889 54.9167L16.0833 56.5833L18 58L19 58.6667L21 59.9722L22 60.5833L24 61.5833L26 62.3333L28 63L30 63.6667L31 64L33 64.5833L34 64.8056L36 65.1944L38 65.6111L40 65.9167L41 65.9722L43 66.0278L44 66.0833L46 66.3889L47 66.6111L49 66.9167L50 66.9722L51 67L53 67L59 67L77 67M102 19L128 19L127.556 20.5L127.333 21.0556L126.611 23L125.75 25L125.25 26L124.389 28L123.611 30L122.75 32L122.25 33L121.389 35L120.611 37L120.167 38L119.75 39L118.778 41L118.25 42L117.389 44L116.611 46L115.75 48L115.25 49L114.389 51L113.611 53L112.75 55L112.222 56L111.778 57L111.25 58L110.833 59L110.389 60L109.611 62L109.194 63L108.472 64.9444L108.278 65.5L108 67L135 67L135.972 65.5L136.167 64.9444L136.639 63.9444L137.389 62L138.25 60L138.75 59L139.611 57L140.389 55L141.25 53L141.75 52L142.611 50L143.389 48L144.25 46L145.222 44L145.75 43L146.611 41L147.389 39L148.25 37L148.75 36L149.611 34L150.389 32L151.25 30L152.222 28L152.75 27L153.611 25L154.389 23L154.806 22.0556L155.194 21.0556L155.5 20.5L156 19L168 19L170 19L171 19L173 18.8889L174 18.6667L175 18.3056L177 17.1111L178 16.3611L180 14.7778L181 13.9167L183 12L184.917 10L186.611 8L188.111 6.05556L188.778 5.05556L189.25 4.5L190 3L140 3L126 3L123 3L121 3.02778L119 3.25L118 3.5L116 4.5L115 5.22222L114 6L112 7.61111L111 8.38889L109 10.0833L108 11.0278L106 13L104.111 15L103.333 15.9444L102.361 17.5L102 19M255 51L233 51L228 51L226 51L224 51L223 50.9722L222 50.9167L220 50.5278L219 50.1389L218 49.7222L217 49.1389L216 48.5278L214 46.9167L213 45.9722L212.028 45L210.222 43L209.417 42L208.111 40L207.639 39L207.111 37L207.083 35L207.25 34L207.472 33L208.278 31L208.833 30L209.389 29L210.694 27L211.417 26L213.083 24.0833L214.028 23.2222L216 21.7222L217 21.0833L219 20.0833L220 19.7222L221 19.4167L223 19.0833L225 19L226 19L227 19L230 19L249 19L253 19L255 19L257 18.9722L259 18.75L260 18.5L262 17.5L263 16.75L264 15.9167L266 14.0833L268 12.3889L269 11.6111L271 9.91667L272.917 8L274.5 6.05556L275.083 5.05556L275.472 4.5L276 3L231 3L221 3L219 3L218 3L216 3.02778L215 3.08334L213 3.38889L212 3.61111L211 3.80556L209 4.19444L208 4.41666L207 4.69444L205 5.38889L203 6.25L202 6.77778L201 7.25L199 8.38889L198 9.02778L196 10.3889L195 11.1389L193 12.6389L191.083 14.2222L189.389 16.0278L187.861 18L187.139 19L186.389 20L185.694 21L184.389 23L183.278 25L182.833 26L182.389 27L181.667 29L181.333 30L181 31L180.417 33L180.083 35L180.028 36L180 37L180.083 39L180.389 41L180.611 42L180.806 43L181.194 45L181.417 46L181.694 47L182.417 49L183.472 51L184.167 52L184.861 53L186.389 54.9167L188.083 56.5833L189.028 57.3056L191 58.6667L192 59.3333L194 60.5833L196 61.5833L198 62.3333L199 62.6667L201 63.3333L203 64L204 64.3056L205 64.5833L206 64.8056L208 65.1944L210 65.6111L211 65.7778L212 65.9167L214 66.0278L215 66.0833L217 66.3889L218 66.6111L220 66.9167L221 66.9722L223 67L224 67L226 67L231 67L233 67L234 67L236 67L237 66.9722L238 66.8889L240 66.3611L242 65.2778L244 63.7778L245 62.9167L247 61L248 60L250 58L251 57L251.972 56L253.667 54.0556L254.639 52.5L255 51z"/>
</svg>
